{
    "asset" : {
        "generator" : "Khronos glTF Blender I/O v0.9.36",
        "version" : "2.0"
    },
    "scene" : 0,
    "scenes" : [
        {
            "name" : "Scene",
            "nodes" : [
                0
            ]
        }
    ],
    "nodes" : [
        {
            "mesh" : 0,
            "name" : "SciFiHelmet",
            "rotation" : [
                0.7071068286895752,
                0,
                0,
                0.7071067094802856
            ]
        }
    ],
    "materials" : [
        {
            "name" : "SciFiHelmet",
            "normalTexture" : {
                "index" : 0,
                "texCoord" : 0
            },
            "occlusionTexture" : {
                "index" : 1,
                "texCoord" : 0
            },
            "pbrMetallicRoughness" : {
                "baseColorTexture" : {
                    "index" : 2,
                    "texCoord" : 0
                },
                "metallicRoughnessTexture" : {
                    "index" : 1,
                    "texCoord" : 0
                }
            }
        }
    ],
    "meshes" : [
        {
            "name" : "SciFiHelmet",
            "primitives" : [
                {
                    "attributes" : {
                        "POSITION" : 0,
                        "NORMAL" : 1,
                        "TEXCOORD_0" : 2
                    },
                    "indices" : 3,
                    "material" : 0
                },
                {
                    "attributes" : {
                        "POSITION" : 4,
                        "NORMAL" : 5,
                        "TEXCOORD_0" : 6
                    },
                    "indices" : 7,
                    "material" : 0
                }
            ]
        }
    ],
    "textures" : [
        {
            "source" : 0
        },
        {
            "source" : 1
        },
        {
            "source" : 2
        }
    ],
    "images" : [
        {
            "mimeType" : "image/png",
            "name" : "SciFiHelmet_Normal",
            "uri" : "SciFiHelmet_Normal.png"
        },
        {
            "mimeType" : "image/png",
            "name" : "SciFiHelmet_AmbientOcclusion-SciFiHelmet_MetallicRoughness",
            "uri" : "SciFiHelmet_AmbientOcclusion-SciFiHelmet_MetallicRoughness.png"
        },
        {
            "mimeType" : "image/png",
            "name" : "SciFiHelmet_BaseColor",
            "uri" : "SciFiHelmet_BaseColor.png"
        }
    ],
    "accessors" : [
        {
            "bufferView" : 0,
            "componentType" : 5126,
            "count" : 65535,
            "max" : [
                1.151152491569519,
                1.2511277198791504,
                1.4587182998657227
            ],
            "min" : [
                -1.151152491569519,
                -1.2511286735534668,
                -1.4587184190750122
            ],
            "type" : "VEC3"
        },
        {
            "bufferView" : 1,
            "componentType" : 5126,
            "count" : 65535,
            "type" : "VEC3"
        },
        {
            "bufferView" : 2,
            "componentType" : 5126,
            "count" : 65535,
            "type" : "VEC2"
        },
        {
            "bufferView" : 3,
            "componentType" : 5123,
            "count" : 65535,
            "type" : "SCALAR"
        },
        {
            "bufferView" : 4,
            "componentType" : 5126,
            "count" : 4539,
            "max" : [
                0.37001365423202515,
                -0.7738242745399475,
                1.054825782775879
            ],
            "min" : [
                -0.5515298843383789,
                -1.2179371118545532,
                -0.9112127423286438
            ],
            "type" : "VEC3"
        },
        {
            "bufferView" : 5,
            "componentType" : 5126,
            "count" : 4539,
            "type" : "VEC3"
        },
        {
            "bufferView" : 6,
            "componentType" : 5126,
            "count" : 4539,
            "type" : "VEC2"
        },
        {
            "bufferView" : 7,
            "componentType" : 5123,
            "count" : 4539,
            "type" : "SCALAR"
        }
    ],
    "bufferViews" : [
        {
            "buffer" : 0,
            "byteLength" : 786420,
            "byteOffset" : 0
        },
        {
            "buffer" : 0,
            "byteLength" : 786420,
            "byteOffset" : 786420
        },
        {
            "buffer" : 0,
            "byteLength" : 524280,
            "byteOffset" : 1572840
        },
        {
            "buffer" : 0,
            "byteLength" : 131070,
            "byteOffset" : 2097120
        },
        {
            "buffer" : 0,
            "byteLength" : 54468,
            "byteOffset" : 2228192
        },
        {
            "buffer" : 0,
            "byteLength" : 54468,
            "byteOffset" : 2282660
        },
        {
            "buffer" : 0,
            "byteLength" : 36312,
            "byteOffset" : 2337128
        },
        {
            "buffer" : 0,
            "byteLength" : 9078,
            "byteOffset" : 2373440
        }
    ],
    "buffers" : [
        {
            "byteLength" : 2382520,
            "uri" : "SciFiHelmet.bin"
        }
    ]
}
