{
    "asset" : {
        "generator" : "Khronos glTF Blender I/O v0.9.36",
        "version" : "2.0"
    },
    "scene" : 0,
    "scenes" : [
        {
            "name" : "Scene",
            "nodes" : [
                0
            ]
        }
    ],
    "nodes" : [
        {
            "mesh" : 0,
            "name" : "WaterBottle",
            "rotation" : [
                0,
                0.7071068286895752,
                -0.7071067094802856,
                0
            ],
            "scale" : [
                50,
                50,
                50
            ]
        }
    ],
    "materials" : [
        {
            "emissiveFactor" : [
                1,
                1,
                1
            ],
            "emissiveTexture" : {
                "index" : 0,
                "texCoord" : 0
            },
            "name" : "BottleMat",
            "normalTexture" : {
                "index" : 1,
                "texCoord" : 0
            },
            "occlusionTexture" : {
                "index" : 2,
                "texCoord" : 0
            },
            "pbrMetallicRoughness" : {
                "baseColorTexture" : {
                    "index" : 3,
                    "texCoord" : 0
                },
                "metallicRoughnessTexture" : {
                    "index" : 2,
                    "texCoord" : 0
                }
            }
        }
    ],
    "meshes" : [
        {
            "name" : "WaterBottle",
            "primitives" : [
                {
                    "attributes" : {
                        "POSITION" : 0,
                        "NORMAL" : 1,
                        "TEXCOORD_0" : 2
                    },
                    "indices" : 3,
                    "material" : 0
                }
            ]
        }
    ],
    "textures" : [
        {
            "source" : 0
        },
        {
            "source" : 1
        },
        {
            "source" : 2
        },
        {
            "source" : 3
        }
    ],
    "images" : [
        {
            "mimeType" : "image/png",
            "name" : "WaterBottle_emissive",
            "uri" : "WaterBottle_emissive.png"
        },
        {
            "mimeType" : "image/png",
            "name" : "WaterBottle_normal",
            "uri" : "WaterBottle_normal.png"
        },
        {
            "mimeType" : "image/png",
            "name" : "WaterBottle_occlusionRoughnessMetallic",
            "uri" : "WaterBottle_occlusionRoughnessMetallic.png"
        },
        {
            "mimeType" : "image/png",
            "name" : "WaterBottle_baseColor",
            "uri" : "WaterBottle_baseColor.png"
        }
    ],
    "accessors" : [
        {
            "bufferView" : 0,
            "componentType" : 5126,
            "count" : 2630,
            "max" : [
                0.054450009018182755,
                0.05445002391934395,
                0.13022033870220184
            ],
            "min" : [
                -0.054450009018182755,
                -0.05445002391934395,
                -0.13022033870220184
            ],
            "type" : "VEC3"
        },
        {
            "bufferView" : 1,
            "componentType" : 5126,
            "count" : 2630,
            "type" : "VEC3"
        },
        {
            "bufferView" : 2,
            "componentType" : 5126,
            "count" : 2630,
            "type" : "VEC2"
        },
        {
            "bufferView" : 3,
            "componentType" : 5123,
            "count" : 13530,
            "type" : "SCALAR"
        }
    ],
    "bufferViews" : [
        {
            "buffer" : 0,
            "byteLength" : 31560,
            "byteOffset" : 0
        },
        {
            "buffer" : 0,
            "byteLength" : 31560,
            "byteOffset" : 31560
        },
        {
            "buffer" : 0,
            "byteLength" : 21040,
            "byteOffset" : 63120
        },
        {
            "buffer" : 0,
            "byteLength" : 27060,
            "byteOffset" : 84160
        }
    ],
    "buffers" : [
        {
            "byteLength" : 111220,
            "uri" : "WaterBottle.bin"
        }
    ]
}
